<svg width="12" height="12" viewBox="0 0 12 12" fill="none" xmlns="http://www.w3.org/2000/svg">
<path d="M2.63899 0.542999C2.22478 0.542999 1.88899 0.878786 1.88899 1.293C1.88899 1.70721 2.22478 2.043 2.63899 2.043V0.542999ZM10.719 1.293H11.469C11.469 0.878786 11.1332 0.542999 10.719 0.542999V1.293ZM9.96899 9.372C9.96899 9.78621 10.3048 10.122 10.719 10.122C11.1332 10.122 11.469 9.78621 11.469 9.372H9.96899ZM0.774663 10.1767C0.481769 10.4696 0.481769 10.9444 0.774663 11.2373C1.06756 11.5302 1.54243 11.5302 1.83532 11.2373L0.774663 10.1767ZM11.2373 1.83533C11.5302 1.54244 11.5302 1.06756 11.2373 0.774669C10.9444 0.481776 10.4696 0.481776 10.1767 0.774669L11.2373 1.83533ZM2.63899 2.043H10.719V0.542999H2.63899V2.043ZM9.96899 1.293V9.372H11.469V1.293H9.96899ZM1.83532 11.2373L11.2373 1.83533L10.1767 0.774669L0.774663 10.1767L1.83532 11.2373Z" fill="#1C3C8E"/>
</svg>
